<?xml version="1.0" standalone="no"?>
<svg viewBox="0 0 200 200" xmlns="http://www.w3.org/2000/svg">
 <defs>
        <linearGradient id="violetToBlue" x1="0%" y1="0%" x2="100%" y2="0%">
        <stop offset="0%" style="stop-color: #22014d" />
        <stop offset="100%" style="stop-color: #fa1186" />
        </linearGradient>
    </defs>
    <path
        fill="url(#violetToBlue)"
d="M37.3,-62.9C51.6,-56.4,68.7,-52.9,77.1,-43C85.5,-33,85.4,-16.5,84.9,-0.3C84.4,15.9,83.6,31.9,75.1,41.8C66.7,51.7,50.5,55.6,36.7,62.6C22.9,69.6,11.5,79.7,-0.2,80C-11.9,80.4,-23.8,71.1,-35.4,62.8C-47,54.6,-58.3,47.4,-63.4,37.1C-68.4,26.8,-67.4,13.4,-68.7,-0.8C-70.1,-14.9,-73.9,-29.9,-70.6,-43.3C-67.3,-56.7,-56.9,-68.6,-43.9,-75.9C-31,-83.1,-15.5,-85.7,-2,-82.2C11.5,-78.8,23,-69.3,37.3,-62.9Z" transform="translate(100 100)" />
</svg>
